<?xml version="1.0" encoding="utf-8"?>
<!-- Generator: Adobe Illustrator 17.0.2, SVG Export Plug-In . SVG Version: 6.00 Build 0)  -->
<!DOCTYPE svg PUBLIC "-//W3C//DTD SVG 1.1//EN" "http://www.w3.org/Graphics/SVG/1.1/DTD/svg11.dtd">
<svg version="1.1" id="Layer_1" xmlns="http://www.w3.org/2000/svg" xmlns:xlink="http://www.w3.org/1999/xlink" x="0px" y="0px"
	 width="432.559px" height="84.635px" viewBox="0 0 432.559 84.635" enable-background="new 0 0 432.559 84.635"
	 xml:space="preserve">
<g>
	<path fill="#FFFFFF" d="M5.747,5.74h233.99v73.156h-99.037V66.84h-5.552v12.056H5.747V5.74z M0,84.635h245.482V0H0V84.635z"/>
	<path fill="#FFFFFF" d="M49.789,27.263h-6.292L32.556,55.407h6.288l2.873-7.805h9.89l2.832,7.805h6.293L49.789,27.263z
		 M43.41,42.447l3.23-8.819l3.196,8.819H43.41z"/>
	<polygon fill="#FFFFFF" points="104.424,27.263 104.424,32.853 114.276,32.853 114.276,55.407 120.202,55.407 120.202,32.853 
		130.093,32.853 130.093,27.263 	"/>
	<polygon fill="#FFFFFF" points="205.258,27.263 198.136,39.264 191.056,27.263 184.168,27.263 195.196,45.075 195.196,55.407 
		201.119,55.407 201.119,45.075 212.145,27.263 	"/>
	<g>
		<path fill="#FFFFFF" d="M172.372,40.586c-1.833-1.338-4.342-1.952-6.556-2.496c-0.46-0.113-0.909-0.221-1.345-0.336l-0.273-0.07
			c-1.803-0.454-4.275-1.076-4.275-3.23c0-2.304,2.684-2.917,4.269-2.917c1.798,0,4.055,0.539,4.608,3.107l0.016,0.086h5.582
			l-0.003-0.111c-0.188-5.194-3.832-8.173-9.994-8.173c-4.59,0-9.949,2.142-9.949,8.176c0,6.282,5.592,7.626,10.525,8.813
			c0.453,0.11,0.897,0.216,1.332,0.326c2.514,0.657,3.789,1.823,3.789,3.468c0,3.538-4.638,3.717-5.57,3.717
			c-3.26,0-5.031-1.216-5.574-3.823l-0.016-0.085h-5.668l0.005,0.11c0.042,2.232,0.313,3.591,1.75,5.279
			c2.723,3.175,7.042,3.649,9.376,3.649c5.381,0,11.17-2.794,11.17-8.932C175.571,44.536,174.346,42.023,172.372,40.586"/>
		<path fill="#FFFFFF" d="M91.175,43.437c2.152-1.57,3.487-4.347,3.487-7.248c0-3.137-1.616-6.051-4.215-7.597
			c-2.203-1.329-4.431-1.329-6.586-1.329H71.169v28.144h5.965V41.495l11.07,13.912h7.225L87,45.08
			C88.509,44.819,89.765,44.467,91.175,43.437 M77.134,40.221v-7.654l6.702-0.002c1.332,0,2.512,0.056,3.465,0.745
			c0.9,0.657,1.435,1.81,1.435,3.084c0,2.539-1.812,3.827-5.388,3.827H77.134z"/>
	</g>
	<path fill="#FFFFFF" d="M288.932,57.542V52.4l11.011-9.146c2.185-1.82,5.323-4.004,5.323-7.189c0-3.003-2.912-4.323-5.551-4.323
		c-3.594,0-5.643,1.82-5.688,5.46h-5.506c0.228-2.639,0.455-4.323,2.002-6.552c2.048-3.003,5.688-4.187,9.191-4.187
		c5.87,0,11.148,3.231,11.148,9.601c0,5.051-3.094,7.462-6.689,10.375l-7.279,5.96h14.65v5.142H288.932z"/>
	<path fill="#FFFFFF" d="M345.848,54.766c-2.184,2.457-5.459,3.549-8.689,3.549c-3.231,0-6.553-1.092-8.736-3.549
		c-2.185-2.457-2.594-5.324-2.594-8.509v-7.781c0-3.185,0.409-6.052,2.594-8.509c2.184-2.457,5.505-3.504,8.736-3.504
		c3.23,0,6.506,1.047,8.689,3.504c2.185,2.457,2.594,5.324,2.594,8.509v7.781C348.441,49.442,348.032,52.309,345.848,54.766z
		 M341.799,33.881c-0.955-1.547-2.957-2.139-4.688-2.139c-1.773,0-3.64,0.592-4.641,2.139c-0.818,1.229-0.864,2.821-0.864,4.277
		v8.417c0,3.868,1.229,6.416,5.505,6.416c4.323,0,5.552-2.502,5.552-6.416v-8.417C342.663,36.702,342.572,35.155,341.799,33.881z"/>
	<path fill="#FFFFFF" d="M361.496,57.542V52.4h11.283V32.607l-12.239,5.46v-5.46l13.878-6.143h3.822V52.4h9.646v5.142H361.496z"/>
	<path fill="#FFFFFF" d="M417.275,50.535v7.007h-5.46v-7.007h-13.741v-4.55l13.286-19.156h5.915v18.564h5.461v5.142H417.275z
		 M411.815,33.972l-7.645,11.421h7.645V33.972z"/>
</g>
</svg>
