<?xml version="1.0" encoding="iso-8859-1"?>
<!-- Generator: Adobe Illustrator 17.0.2, SVG Export Plug-In . SVG Version: 6.00 Build 0)  -->
<!DOCTYPE svg PUBLIC "-//W3C//DTD SVG 1.1//EN" "http://www.w3.org/Graphics/SVG/1.1/DTD/svg11.dtd">
<svg version="1.1" id="Layer_1" xmlns="http://www.w3.org/2000/svg" xmlns:xlink="http://www.w3.org/1999/xlink" x="0px" y="0px"
	 width="122.741px" height="42.318px" viewBox="0 0 122.741 42.318" style="enable-background:new 0 0 122.741 42.318;"
	 xml:space="preserve">
<g>
	<path style="fill:#FFFFFF;" d="M2.873,2.87h116.995v36.578H70.35V33.42h-2.776v6.028h-64.7V2.87z M0,42.318h122.741V0H0V42.318z"/>
	<path style="fill:#FFFFFF;" d="M24.894,13.631h-3.146l-5.47,14.072h3.144l1.436-3.902h4.945l1.416,3.902h3.147L24.894,13.631z
		 M21.705,21.224l1.615-4.41l1.598,4.41H21.705z"/>
	<polygon style="fill:#FFFFFF;" points="52.212,13.631 52.212,16.426 57.138,16.426 57.138,27.703 60.101,27.703 60.101,16.426 
		65.047,16.426 65.047,13.631 	"/>
	<polygon style="fill:#FFFFFF;" points="102.629,13.631 99.068,19.632 95.528,13.631 92.084,13.631 97.598,22.538 97.598,27.703 
		100.56,27.703 100.56,22.538 106.073,13.631 	"/>
	<g>
		<path style="fill:#FFFFFF;" d="M86.186,20.293c-0.917-0.669-2.171-0.976-3.278-1.248c-0.23-0.056-0.455-0.111-0.673-0.168
			l-0.136-0.035c-0.902-0.227-2.138-0.538-2.138-1.615c0-1.152,1.342-1.459,2.134-1.459c0.899,0,2.027,0.269,2.304,1.554
			l0.008,0.043h2.791l-0.002-0.056c-0.094-2.597-1.916-4.087-4.997-4.087c-2.295,0-4.974,1.071-4.974,4.088
			c0,3.141,2.796,3.813,5.262,4.406c0.226,0.055,0.449,0.108,0.666,0.163c1.257,0.328,1.894,0.912,1.894,1.734
			c0,1.769-2.319,1.859-2.785,1.859c-1.63,0-2.515-0.608-2.787-1.912l-0.008-0.042h-2.834l0.003,0.055
			c0.021,1.116,0.157,1.796,0.875,2.639c1.362,1.587,3.521,1.825,4.688,1.825c2.69,0,5.585-1.397,5.585-4.466
			C87.786,22.268,87.173,21.012,86.186,20.293"/>
		<path style="fill:#FFFFFF;" d="M45.588,21.718c1.076-0.785,1.744-2.174,1.744-3.624c0-1.568-0.808-3.025-2.108-3.799
			c-1.102-0.664-2.215-0.664-3.293-0.664h-6.347v14.072h2.982v-6.956l5.535,6.956h3.612L43.5,22.54
			C44.255,22.41,44.883,22.233,45.588,21.718 M38.567,20.11v-3.827l3.351-0.001c0.666,0,1.256,0.028,1.732,0.373
			c0.45,0.328,0.718,0.905,0.718,1.542c0,1.27-0.906,1.913-2.694,1.913H38.567z"/>
	</g>
</g>
<g>
</g>
<g>
</g>
<g>
</g>
<g>
</g>
<g>
</g>
<g>
</g>
</svg>
