<?xml version="1.0" encoding="utf-8"?>
<!-- Generator: Adobe Illustrator 17.0.2, SVG Export Plug-In . SVG Version: 6.00 Build 0)  -->
<!DOCTYPE svg PUBLIC "-//W3C//DTD SVG 1.1//EN" "http://www.w3.org/Graphics/SVG/1.1/DTD/svg11.dtd">
<svg version="1.1" id="Layer_1" xmlns="http://www.w3.org/2000/svg" xmlns:xlink="http://www.w3.org/1999/xlink" x="0px" y="0px"
	 width="393px" height="492px" viewBox="0 0 393 492" enable-background="new 0 0 393 492" xml:space="preserve">
<g>
	<g>
		<rect x="352.724" y="177.611" fill="#FFFFFF" width="4" height="267.997"/>
	</g>
	<g>
		<rect x="344.112" y="202.608" fill="#FFFFFF" width="4.014" height="243"/>
	</g>
	<g>
		<rect x="335.506" y="227.608" fill="#FFFFFF" width="4.014" height="218"/>
	</g>
	<g>
		<rect x="326.906" y="247.608" fill="#FFFFFF" width="4.003" height="198"/>
	</g>
	<g>
		<rect x="318.302" y="260.608" fill="#FFFFFF" width="4.001" height="185"/>
	</g>
	<g>
		<rect x="309.686" y="272.608" fill="#FFFFFF" width="4.023" height="173"/>
	</g>
	<g>
		<rect x="301.091" y="290.608" fill="#FFFFFF" width="4.001" height="155"/>
	</g>
	<g>
		<rect x="292.485" y="308.608" fill="#FFFFFF" width="4.001" height="137"/>
	</g>
	<g>
		<rect x="283.873" y="326.608" fill="#FFFFFF" width="4.016" height="119"/>
	</g>
	<g>
		<rect x="275.275" y="344.608" fill="#FFFFFF" width="4.001" height="101"/>
	</g>
	<g>
		<rect x="266.654" y="359.608" fill="#FFFFFF" width="4.033" height="86"/>
	</g>
	<g>
		<rect x="258.065" y="374.618" fill="#FFFFFF" width="4.001" height="70.99"/>
	</g>
	<g>
		<rect x="249.43" y="380.608" fill="#808080" width="4.058" height="65"/>
	</g>
	<g>
		<rect x="240.834" y="394.608" fill="#808080" width="4.04" height="51"/>
	</g>
	<g>
		<rect x="232.212" y="407.608" fill="#808080" width="4.074" height="38"/>
	</g>
	<g>
		<rect x="223.583" y="412.608" fill="#808080" width="4.121" height="33"/>
	</g>
	<g>
		<rect x="214.976" y="417.608" fill="#808080" width="4.124" height="28"/>
	</g>
	<g>
		<rect x="206.398" y="423.608" fill="#808080" width="4.07" height="22"/>
	</g>
	<g>
		<rect x="197.791" y="426.608" fill="#808080" width="4.074" height="19"/>
	</g>
	<g>
		<rect x="189.16" y="431.608" fill="#808080" width="4.124" height="14"/>
	</g>
	<g>
		<rect x="180.582" y="434.608" fill="#808080" width="4.07" height="11"/>
	</g>
	<g>
		<rect x="171.919" y="435.608" fill="#808080" width="4.185" height="10"/>
	</g>
	<g>
		<rect x="163.186" y="439.608" fill="#808080" width="4.44" height="6"/>
	</g>
	<g>
		<rect x="154.95" y="440.608" fill="#808080" width="3.7" height="5"/>
	</g>
	<g>
		<rect x="146.206" y="441.608" fill="#808080" width="3.979" height="4"/>
	</g>
	<g>
		<rect x="137.6" y="441.608" fill="#808080" width="3.979" height="4"/>
	</g>
	<g>
		<rect x="128.71" y="442.608" fill="#808080" width="4.549" height="3"/>
	</g>
	<g>
		<rect x="119.188" y="443.608" fill="#808080" width="6.383" height="2"/>
	</g>
	<g>
		<rect x="110.583" y="443.608" fill="#808080" width="6.383" height="2"/>
	</g>
	<g>
		<rect x="103.573" y="444.608" fill="#808080" width="3.191" height="1"/>
	</g>
	<g>
		<rect x="94.563" y="444.355" fill="#808080" width="4" height="1.253"/>
	</g>
	<g>
		<rect x="85.958" y="444.355" fill="#808080" width="4" height="1.253"/>
	</g>
	<g>
		<rect x="77.352" y="444.608" fill="#808080" width="4" height="1"/>
	</g>
	<g>
		<rect x="68.747" y="444.608" fill="#808080" width="4" height="1"/>
	</g>
	<g>
		<rect x="60.142" y="444.608" fill="#808080" width="4" height="1"/>
	</g>
	<g>
		<rect x="51.537" y="444.608" fill="#808080" width="4" height="1"/>
	</g>
</g>
</svg>
