<?xml version="1.0" encoding="utf-8"?>
<!-- Generator: Adobe Illustrator 17.0.2, SVG Export Plug-In . SVG Version: 6.00 Build 0)  -->
<!DOCTYPE svg PUBLIC "-//W3C//DTD SVG 1.1//EN" "http://www.w3.org/Graphics/SVG/1.1/DTD/svg11.dtd">
<svg version="1.1" id="Layer_1" xmlns="http://www.w3.org/2000/svg" xmlns:xlink="http://www.w3.org/1999/xlink" x="0px" y="0px"
	 width="400px" height="500px" viewBox="0 0 400 500" enable-background="new 0 0 400 500" xml:space="preserve">
<g>
	<rect x="349" y="32" fill="#FFFFFF" width="4" height="420"/>
	<rect x="340.366" y="77.061" fill="#FFFFFF" width="4" height="374.938"/>
	<rect x="331.731" y="127.172" fill="#FFFFFF" width="4" height="324.827"/>
	<rect x="323.097" y="165.16" fill="#FFFFFF" width="4" height="286.839"/>
	<rect x="314.464" y="201.531" fill="#FFFFFF" width="4" height="250.468"/>
	<rect x="305.83" y="236.286" fill="#FFFFFF" width="4" height="215.713"/>
	<rect x="297.196" y="268.616" fill="#FFFFFF" width="4" height="183.383"/>
	<rect x="288.562" y="306.155" fill="#FFFFFF" width="4" height="145.844"/>
	<rect x="279.928" y="340.55" fill="#FFFFFF" width="4" height="111.449"/>
	<rect x="271.294" y="370.455" fill="#FFFFFF" width="4" height="81.544"/>
	<rect x="262.66" y="387.428" fill="#FFFFFF" width="4" height="64.571"/>
	<rect x="254.026" y="398.699" fill="#FFFFFF" width="4" height="53.3"/>
	<rect x="245.392" y="408.443" fill="#808080" width="4" height="43.556"/>
	<rect x="236.758" y="417.289" fill="#808080" width="4" height="34.71"/>
	<rect x="228.125" y="425.349" fill="#808080" width="4" height="26.65"/>
	<rect x="219.491" y="430.221" fill="#808080" width="4" height="21.778"/>
	<rect x="210.856" y="434.644" fill="#808080" width="4" height="17.355"/>
	<rect x="202.222" y="439.494" fill="#808080" width="4" height="12.505"/>
	<rect x="193.589" y="441.919" fill="#808080" width="4" height="10.081"/>
	<rect x="184.955" y="444.343" fill="#808080" width="4" height="7.656"/>
	<rect x="176.321" y="446.768" fill="#808080" width="4" height="5.231"/>
	<rect x="167.687" y="448.171" fill="#808080" width="4" height="3.828"/>
	<rect x="150.419" y="449.192" fill="#808080" width="4" height="2.807"/>
	<rect x="141.785" y="449.192" fill="#808080" width="4" height="2.807"/>
	<rect x="133.151" y="449.192" fill="#808080" width="4" height="2.807"/>
	<rect x="124.517" y="449.192" fill="#808080" width="4" height="2.807"/>
	<rect x="115.883" y="449.192" fill="#808080" width="4" height="2.807"/>
	<rect x="107.25" y="449.192" fill="#808080" width="4" height="2.807"/>
	<rect x="98.616" y="449.192" fill="#808080" width="4" height="2.807"/>
	<rect x="89.981" y="449.192" fill="#808080" width="4" height="2.807"/>
	<rect x="81.347" y="450.192" fill="#808080" width="4" height="1.807"/>
	<rect x="72.714" y="450.192" fill="#808080" width="4" height="1.807"/>
	<rect x="64.08" y="450.192" fill="#808080" width="4" height="1.807"/>
	<rect x="55.446" y="450.192" fill="#808080" width="4" height="1.807"/>
	<rect x="46.812" y="450.192" fill="#808080" width="4" height="1.807"/>
	<rect x="159.053" y="449.192" fill="#808080" width="4" height="2.807"/>
	<polyline fill="#FFFFFF" points="340.366,76.999 344.366,76.999 344.366,451.999 340.366,451.999 	"/>
</g>
</svg>
