<?xml version="1.0" encoding="utf-8"?>
<!-- Generator: Adobe Illustrator 17.0.2, SVG Export Plug-In . SVG Version: 6.00 Build 0)  -->
<!DOCTYPE svg PUBLIC "-//W3C//DTD SVG 1.1//EN" "http://www.w3.org/Graphics/SVG/1.1/DTD/svg11.dtd">
<svg version="1.1" id="Layer_1" xmlns="http://www.w3.org/2000/svg" xmlns:xlink="http://www.w3.org/1999/xlink" x="0px" y="0px"
	 width="393px" height="492px" viewBox="0 0 393 492" enable-background="new 0 0 393 492" xml:space="preserve">
<g>
	<path fill="#FFFFFF" d="M242.176,463.104v-1.338l2.804-2.613c0.227-0.205,0.429-0.434,0.605-0.685
		c0.177-0.251,0.265-0.54,0.265-0.865c0-0.34-0.104-0.622-0.312-0.844c-0.209-0.223-0.486-0.334-0.834-0.334
		c-0.219,0-0.425,0.057-0.615,0.17c-0.191,0.113-0.337,0.269-0.436,0.467c-0.071,0.142-0.113,0.285-0.128,0.43
		c-0.015,0.146-0.021,0.296-0.021,0.452h-1.402c-0.008-0.042-0.011-0.085-0.011-0.127s0-0.085,0-0.127
		c0-0.361,0.067-0.699,0.202-1.014c0.134-0.315,0.316-0.591,0.547-0.829c0.229-0.237,0.502-0.423,0.817-0.558
		c0.315-0.134,0.653-0.202,1.015-0.202s0.699,0.067,1.014,0.202c0.314,0.135,0.59,0.317,0.823,0.547s0.417,0.503,0.552,0.818
		s0.202,0.653,0.202,1.014c0,0.283-0.041,0.549-0.122,0.796c-0.082,0.248-0.193,0.48-0.334,0.696
		c-0.143,0.216-0.305,0.423-0.489,0.621c-0.185,0.198-0.375,0.386-0.573,0.563l-1.594,1.423h3.112v1.338L242.176,463.104
		L242.176,463.104z"/>
	<path fill="#FFFFFF" d="M254.548,460.63c0,0.39-0.063,0.746-0.191,1.067c-0.128,0.322-0.308,0.6-0.542,0.834
		c-0.233,0.233-0.512,0.414-0.834,0.542s-0.678,0.191-1.066,0.191c-0.418,0-0.783-0.069-1.094-0.207
		c-0.312-0.138-0.613-0.355-0.902-0.653c-0.256-0.262-0.428-0.545-0.516-0.85c-0.089-0.305-0.133-0.637-0.133-0.999v-2.825
		c0-0.396,0.065-0.758,0.196-1.083s0.317-0.604,0.558-0.833s0.523-0.409,0.85-0.536s0.687-0.191,1.084-0.191
		c0.375,0,0.722,0.067,1.04,0.202c0.319,0.135,0.593,0.321,0.823,0.558s0.408,0.517,0.536,0.839
		c0.128,0.322,0.191,0.671,0.191,1.046V460.63z M253.135,457.741c0-0.177-0.027-0.345-0.084-0.504s-0.139-0.299-0.244-0.419
		c-0.107-0.12-0.234-0.216-0.383-0.287s-0.315-0.106-0.5-0.106c-0.402,0-0.711,0.132-0.924,0.398
		c-0.212,0.266-0.318,0.589-0.318,0.972v2.676c0,0.198,0.025,0.386,0.074,0.563c0.05,0.177,0.124,0.331,0.224,0.462
		c0.099,0.131,0.227,0.235,0.382,0.313c0.156,0.078,0.34,0.117,0.553,0.117s0.395-0.037,0.547-0.112
		c0.152-0.074,0.277-0.175,0.377-0.302s0.174-0.278,0.223-0.452c0.05-0.173,0.074-0.359,0.074-0.558v-2.761H253.135z"/>
	<path fill="#FFFFFF" d="M258.17,463.104v-6.521h-0.987v-1.338h2.4v7.859H258.17z"/>
	<path fill="#FFFFFF" d="M267.696,461.926v1.179h-1.413v-1.179h-3.388v-1.158l3.611-5.522h1.189v5.342h0.828v1.338L267.696,461.926
		L267.696,461.926z M266.283,457.635h-0.021l-1.849,2.952h1.869v-2.952H266.283z"/>
</g>
<g>
	<path fill="#FFFFFF" d="M350.09,463.105v-1.338l2.804-2.613c0.227-0.205,0.429-0.434,0.605-0.685
		c0.177-0.251,0.265-0.54,0.265-0.865c0-0.34-0.104-0.622-0.312-0.844c-0.209-0.223-0.486-0.334-0.834-0.334
		c-0.219,0-0.425,0.057-0.615,0.17c-0.191,0.113-0.337,0.269-0.436,0.467c-0.071,0.142-0.113,0.285-0.128,0.43
		c-0.015,0.146-0.021,0.296-0.021,0.452h-1.402c-0.008-0.042-0.011-0.085-0.011-0.127s0-0.085,0-0.127
		c0-0.361,0.067-0.699,0.202-1.014c0.134-0.315,0.316-0.591,0.547-0.829c0.229-0.237,0.502-0.423,0.817-0.558
		c0.315-0.134,0.653-0.202,1.015-0.202s0.699,0.067,1.014,0.202c0.314,0.135,0.59,0.317,0.823,0.547s0.417,0.503,0.552,0.818
		s0.202,0.653,0.202,1.014c0,0.283-0.041,0.549-0.122,0.796c-0.082,0.248-0.193,0.48-0.334,0.696
		c-0.143,0.216-0.305,0.423-0.489,0.621c-0.185,0.198-0.375,0.386-0.573,0.563l-1.594,1.423h3.112v1.338L350.09,463.105
		L350.09,463.105z"/>
	<path fill="#FFFFFF" d="M362.463,460.63c0,0.39-0.063,0.746-0.191,1.067c-0.128,0.322-0.308,0.6-0.542,0.834
		c-0.233,0.233-0.512,0.414-0.834,0.542s-0.678,0.191-1.066,0.191c-0.418,0-0.783-0.069-1.094-0.207
		c-0.312-0.138-0.613-0.355-0.902-0.653c-0.256-0.262-0.428-0.545-0.516-0.85c-0.089-0.305-0.133-0.637-0.133-0.999v-2.825
		c0-0.396,0.065-0.758,0.196-1.083s0.317-0.604,0.558-0.833s0.523-0.409,0.85-0.536s0.687-0.191,1.084-0.191
		c0.375,0,0.722,0.067,1.04,0.202c0.319,0.135,0.593,0.321,0.823,0.558s0.408,0.517,0.536,0.839
		c0.128,0.322,0.191,0.671,0.191,1.046L362.463,460.63L362.463,460.63z M361.049,457.742c0-0.177-0.027-0.345-0.084-0.504
		s-0.139-0.299-0.244-0.419c-0.107-0.12-0.234-0.216-0.383-0.287s-0.315-0.106-0.5-0.106c-0.402,0-0.711,0.132-0.924,0.398
		c-0.212,0.266-0.318,0.589-0.318,0.972v2.676c0,0.198,0.025,0.386,0.074,0.563c0.05,0.177,0.124,0.331,0.224,0.462
		c0.099,0.131,0.227,0.235,0.382,0.313c0.156,0.078,0.34,0.117,0.553,0.117s0.395-0.037,0.547-0.112
		c0.152-0.074,0.277-0.175,0.377-0.302s0.174-0.278,0.223-0.452c0.05-0.173,0.074-0.359,0.074-0.558v-2.761H361.049z"/>
	<path fill="#FFFFFF" d="M365.872,463.105v-6.521h-0.988v-1.338h2.4v7.859H365.872z"/>
	<path fill="#FFFFFF" d="M375.694,460.524c0,0.382-0.07,0.74-0.212,1.073s-0.337,0.623-0.584,0.871
		c-0.248,0.248-0.536,0.442-0.866,0.584c-0.328,0.142-0.685,0.212-1.066,0.212c-0.34,0-0.67-0.065-0.988-0.196
		s-0.6-0.308-0.844-0.531s-0.445-0.486-0.6-0.791c-0.156-0.304-0.241-0.63-0.256-0.977h1.412c0.057,0.326,0.191,0.6,0.404,0.823
		c0.213,0.223,0.492,0.334,0.839,0.334c0.198,0,0.379-0.037,0.542-0.112c0.162-0.074,0.305-0.175,0.424-0.302
		c0.121-0.127,0.215-0.276,0.282-0.446s0.101-0.351,0.101-0.542c0-0.184-0.033-0.359-0.101-0.526
		c-0.067-0.166-0.161-0.313-0.282-0.44c-0.119-0.127-0.262-0.229-0.424-0.303c-0.163-0.074-0.336-0.112-0.521-0.112
		c-0.233,0-0.435,0.048-0.601,0.144s-0.32,0.235-0.461,0.419l-1.265-0.351l0.743-4.11h3.559v1.338h-2.496l-0.255,1.444
		c0.163-0.071,0.327-0.126,0.493-0.165c0.167-0.039,0.339-0.059,0.516-0.059c0.368,0,0.705,0.076,1.009,0.229
		c0.305,0.152,0.568,0.354,0.792,0.605c0.223,0.251,0.396,0.542,0.52,0.871C375.632,459.839,375.694,460.178,375.694,460.524z"/>
</g>
<g>
	<path fill="#FFFFFF" d="M138.475,463.105v-1.338l2.803-2.613c0.227-0.205,0.429-0.434,0.605-0.685
		c0.178-0.251,0.266-0.54,0.266-0.865c0-0.34-0.104-0.622-0.312-0.844c-0.209-0.223-0.487-0.334-0.834-0.334
		c-0.22,0-0.426,0.057-0.616,0.17c-0.191,0.113-0.337,0.269-0.436,0.467c-0.071,0.142-0.113,0.285-0.128,0.43
		c-0.014,0.146-0.021,0.296-0.021,0.452h-1.401c-0.008-0.042-0.012-0.085-0.012-0.127s0-0.085,0-0.127
		c0-0.361,0.068-0.699,0.202-1.014s0.317-0.591,0.547-0.829c0.229-0.237,0.503-0.423,0.817-0.558
		c0.315-0.134,0.654-0.202,1.015-0.202s0.699,0.067,1.015,0.202c0.314,0.135,0.589,0.317,0.822,0.547
		c0.234,0.23,0.418,0.503,0.553,0.818s0.201,0.653,0.201,1.014c0,0.283-0.041,0.549-0.121,0.796
		c-0.082,0.248-0.193,0.48-0.335,0.696c-0.142,0.216-0.305,0.423-0.489,0.621s-0.375,0.386-0.572,0.563l-1.594,1.423h3.111v1.338
		L138.475,463.105L138.475,463.105z"/>
	<path fill="#FFFFFF" d="M150.846,460.63c0,0.39-0.063,0.746-0.191,1.067c-0.127,0.322-0.308,0.6-0.541,0.834
		c-0.234,0.233-0.512,0.414-0.834,0.542s-0.678,0.191-1.066,0.191c-0.418,0-0.783-0.069-1.095-0.207s-0.612-0.355-0.902-0.653
		c-0.255-0.262-0.427-0.545-0.515-0.85c-0.09-0.305-0.133-0.637-0.133-0.999v-2.825c0-0.396,0.064-0.758,0.195-1.083
		s0.317-0.604,0.559-0.833c0.24-0.23,0.523-0.409,0.85-0.536c0.325-0.127,0.686-0.191,1.083-0.191c0.375,0,0.722,0.067,1.04,0.202
		c0.319,0.135,0.594,0.321,0.824,0.558c0.229,0.237,0.408,0.517,0.535,0.839c0.128,0.322,0.191,0.671,0.191,1.046L150.846,460.63
		L150.846,460.63z M149.434,457.742c0-0.177-0.028-0.345-0.085-0.504s-0.138-0.299-0.244-0.419s-0.233-0.216-0.382-0.287
		c-0.149-0.071-0.316-0.106-0.5-0.106c-0.403,0-0.711,0.132-0.924,0.398s-0.318,0.589-0.318,0.972v2.676
		c0,0.198,0.024,0.386,0.074,0.563c0.049,0.177,0.123,0.331,0.223,0.462s0.227,0.235,0.383,0.313
		c0.155,0.078,0.34,0.117,0.553,0.117c0.212,0,0.395-0.037,0.547-0.112c0.151-0.074,0.277-0.175,0.377-0.302
		c0.099-0.127,0.173-0.278,0.223-0.452c0.049-0.173,0.074-0.359,0.074-0.558v-2.761H149.434z"/>
	<path fill="#FFFFFF" d="M154.68,463.105v-6.521h-0.987v-1.338h2.399v7.859H154.68z"/>
	<path fill="#FFFFFF" d="M164.897,460.63c0,0.375-0.071,0.724-0.213,1.046s-0.334,0.6-0.579,0.833
		c-0.244,0.234-0.53,0.418-0.86,0.552c-0.329,0.134-0.678,0.202-1.046,0.202c-0.36,0-0.699-0.063-1.015-0.191
		c-0.314-0.127-0.591-0.305-0.828-0.531c-0.236-0.227-0.426-0.494-0.568-0.802c-0.141-0.308-0.223-0.643-0.244-1.003h1.413
		c0.015,0.163,0.057,0.317,0.128,0.462c0.07,0.145,0.162,0.271,0.275,0.377c0.113,0.106,0.244,0.191,0.393,0.255
		c0.148,0.064,0.309,0.096,0.479,0.096s0.33-0.034,0.482-0.101c0.152-0.067,0.285-0.159,0.398-0.276
		c0.113-0.117,0.203-0.253,0.271-0.409c0.066-0.155,0.101-0.318,0.101-0.488c0-0.227-0.042-0.423-0.128-0.589
		c-0.084-0.167-0.199-0.303-0.345-0.409s-0.312-0.184-0.499-0.233c-0.188-0.049-0.385-0.074-0.59-0.074h-0.233v-1.338h0.245
		c0.134,0,0.26-0.016,0.377-0.048c0.116-0.032,0.221-0.083,0.312-0.154s0.164-0.158,0.218-0.26s0.079-0.229,0.079-0.377
		c0-0.227-0.058-0.407-0.175-0.542c-0.116-0.135-0.292-0.202-0.525-0.202c-0.206,0-0.37,0.072-0.493,0.217
		c-0.125,0.146-0.193,0.313-0.208,0.504h-1.412c0.035-0.453,0.163-0.849,0.382-1.189c0.22-0.34,0.549-0.588,0.988-0.744
		c0.113-0.035,0.231-0.065,0.355-0.09c0.124-0.024,0.246-0.037,0.366-0.037c0.29,0,0.565,0.057,0.823,0.17s0.484,0.266,0.68,0.457
		c0.195,0.191,0.349,0.416,0.462,0.674c0.113,0.259,0.17,0.533,0.17,0.823c0,0.297-0.054,0.561-0.159,0.791
		c-0.106,0.23-0.279,0.43-0.521,0.6c0.425,0.184,0.738,0.457,0.94,0.818C164.796,459.781,164.897,460.185,164.897,460.63z"/>
</g>
<g>
	<path fill="#FFFFFF" d="M34.88,463.104v-1.338l2.804-2.613c0.227-0.205,0.429-0.434,0.605-0.685
		c0.177-0.251,0.265-0.54,0.265-0.865c0-0.34-0.104-0.622-0.312-0.844c-0.209-0.223-0.486-0.334-0.834-0.334
		c-0.219,0-0.425,0.057-0.615,0.17c-0.191,0.113-0.337,0.269-0.436,0.467c-0.071,0.142-0.113,0.285-0.128,0.43
		c-0.015,0.146-0.021,0.296-0.021,0.452h-1.402c-0.008-0.042-0.011-0.085-0.011-0.127s0-0.085,0-0.127
		c0-0.361,0.067-0.699,0.202-1.014c0.134-0.315,0.316-0.591,0.547-0.829c0.229-0.237,0.502-0.423,0.817-0.558
		c0.315-0.134,0.653-0.202,1.015-0.202s0.699,0.067,1.014,0.202c0.314,0.135,0.59,0.317,0.823,0.547s0.417,0.503,0.552,0.818
		s0.202,0.653,0.202,1.014c0,0.283-0.041,0.549-0.122,0.796c-0.082,0.248-0.193,0.48-0.334,0.696
		c-0.143,0.216-0.305,0.423-0.489,0.621c-0.185,0.198-0.375,0.386-0.573,0.563l-1.594,1.423h3.112v1.338L34.88,463.104
		L34.88,463.104z"/>
	<path fill="#FFFFFF" d="M47.252,460.63c0,0.39-0.063,0.746-0.191,1.067c-0.128,0.322-0.308,0.6-0.542,0.834
		c-0.233,0.233-0.512,0.414-0.834,0.542s-0.678,0.191-1.066,0.191c-0.418,0-0.783-0.069-1.094-0.207
		c-0.312-0.138-0.613-0.355-0.902-0.653c-0.256-0.262-0.428-0.545-0.516-0.85c-0.089-0.305-0.133-0.637-0.133-0.999v-2.825
		c0-0.396,0.065-0.758,0.196-1.083s0.317-0.604,0.558-0.833s0.523-0.409,0.85-0.536s0.687-0.191,1.084-0.191
		c0.375,0,0.722,0.067,1.04,0.202c0.319,0.135,0.593,0.321,0.823,0.558c0.23,0.237,0.408,0.517,0.536,0.839s0.191,0.671,0.191,1.046
		C47.252,457.732,47.252,460.63,47.252,460.63z M45.839,457.741c0-0.177-0.027-0.345-0.084-0.504s-0.139-0.299-0.244-0.419
		c-0.107-0.12-0.234-0.216-0.383-0.287s-0.315-0.106-0.5-0.106c-0.402,0-0.711,0.132-0.924,0.398
		c-0.212,0.266-0.318,0.589-0.318,0.972v2.676c0,0.198,0.025,0.386,0.074,0.563c0.05,0.177,0.124,0.331,0.224,0.462
		c0.099,0.131,0.227,0.235,0.382,0.313c0.156,0.078,0.34,0.117,0.553,0.117s0.395-0.037,0.547-0.112
		c0.152-0.074,0.277-0.175,0.377-0.302s0.174-0.278,0.223-0.452c0.05-0.173,0.074-0.359,0.074-0.558v-2.761H45.839z"/>
	<path fill="#FFFFFF" d="M51.085,463.104v-6.521h-0.986v-1.338h2.399v7.859H51.085z"/>
	<path fill="#FFFFFF" d="M56.119,463.104v-1.338l2.804-2.613c0.227-0.205,0.428-0.434,0.605-0.685s0.266-0.54,0.266-0.865
		c0-0.34-0.105-0.622-0.313-0.844c-0.209-0.223-0.487-0.334-0.834-0.334c-0.22,0-0.425,0.057-0.616,0.17s-0.336,0.269-0.436,0.467
		c-0.07,0.142-0.113,0.285-0.127,0.43c-0.014,0.146-0.021,0.296-0.021,0.452h-1.401c-0.007-0.042-0.011-0.085-0.011-0.127
		s0-0.085,0-0.127c0-0.361,0.067-0.699,0.201-1.014c0.135-0.315,0.317-0.591,0.547-0.829c0.23-0.237,0.504-0.423,0.818-0.558
		c0.314-0.134,0.653-0.202,1.014-0.202s0.699,0.067,1.015,0.202c0.315,0.135,0.589,0.317,0.823,0.547
		c0.233,0.23,0.418,0.503,0.553,0.818c0.134,0.315,0.201,0.653,0.201,1.014c0,0.283-0.041,0.549-0.122,0.796
		c-0.081,0.248-0.192,0.48-0.335,0.696c-0.141,0.216-0.305,0.423-0.488,0.621c-0.184,0.198-0.375,0.386-0.573,0.563l-1.593,1.423
		h3.111v1.338L56.119,463.104L56.119,463.104z"/>
</g>
<g>
	<rect x="254.727" y="26.959" fill="#444444" width="2" height="417.584"/>
</g>
<g>
	<rect x="358.322" y="27.363" fill="#444444" width="2" height="417.584"/>
</g>
<g>
	<rect x="151.131" y="26.959" fill="#444444" width="2" height="417.584"/>
</g>
<g>
	<rect x="47.537" y="27.959" fill="#444444" width="2" height="417.584"/>
</g>
</svg>
