<?xml version="1.0" encoding="utf-8"?>
<!-- Generator: Adobe Illustrator 17.0.2, SVG Export Plug-In . SVG Version: 6.00 Build 0)  -->
<!DOCTYPE svg PUBLIC "-//W3C//DTD SVG 1.1//EN" "http://www.w3.org/Graphics/SVG/1.1/DTD/svg11.dtd">
<svg version="1.1" xmlns="http://www.w3.org/2000/svg" xmlns:xlink="http://www.w3.org/1999/xlink" x="0px" y="0px" width="400px"
	 height="500px" viewBox="0 0 400 500" enable-background="new 0 0 400 500" xml:space="preserve">
<g id="background">
</g>
<g id="data">
	<g>
		<rect x="349" y="32" fill="#FFFFFF" width="4" height="420"/>
	</g>
	<g>
		<rect x="340.366" y="77.061" fill="#FFFFFF" width="4" height="374.938"/>
	</g>
	<g>
		<rect x="331.731" y="127.172" fill="#FFFFFF" width="4" height="324.827"/>
	</g>
	<g>
		<rect x="323.097" y="165.16" fill="#FFFFFF" width="4" height="286.839"/>
	</g>
	<g>
		<rect x="314.464" y="201.531" fill="#FFFFFF" width="4" height="250.468"/>
	</g>
	<g>
		<rect x="305.83" y="236.286" fill="#FFFFFF" width="4" height="215.713"/>
	</g>
	<g>
		<rect x="297.196" y="268.616" fill="#FFFFFF" width="4" height="183.383"/>
	</g>
	<g>
		<rect x="288.562" y="306.155" fill="#FFFFFF" width="4" height="145.844"/>
	</g>
	<g>
		<rect x="279.928" y="340.55" fill="#FFFFFF" width="4" height="111.449"/>
	</g>
	<g>
		<rect x="271.294" y="370.455" fill="#FFFFFF" width="4" height="81.544"/>
	</g>
	<g>
		<rect x="262.66" y="387.428" fill="#FFFFFF" width="4" height="64.571"/>
	</g>
	<g>
		<rect x="254.026" y="398.699" fill="#FFFFFF" width="4" height="53.3"/>
	</g>
	<g>
		<rect x="245.392" y="408.443" fill="#808080" width="4" height="43.556"/>
	</g>
	<g>
		<rect x="236.758" y="417.289" fill="#808080" width="4" height="34.71"/>
	</g>
	<g>
		<rect x="228.125" y="425.349" fill="#808080" width="4" height="26.65"/>
	</g>
	<g>
		<rect x="219.491" y="430.221" fill="#808080" width="4" height="21.778"/>
	</g>
	<g>
		<rect x="210.856" y="434.644" fill="#808080" width="4" height="17.355"/>
	</g>
	<g>
		<rect x="202.222" y="439.494" fill="#808080" width="4" height="12.505"/>
	</g>
	<g>
		<rect x="193.589" y="441.919" fill="#808080" width="4" height="10.081"/>
	</g>
	<g>
		<rect x="184.955" y="444.343" fill="#808080" width="4" height="7.656"/>
	</g>
	<g>
		<rect x="176.321" y="446.768" fill="#808080" width="4" height="5.231"/>
	</g>
	<g>
		<rect x="167.687" y="448.171" fill="#808080" width="4" height="3.828"/>
	</g>
	<g>
		<rect x="150.419" y="449.192" fill="#808080" width="4" height="2.807"/>
	</g>
	<g>
		<rect x="141.785" y="449.192" fill="#808080" width="4" height="2.807"/>
	</g>
	<g>
		<rect x="133.151" y="449.192" fill="#808080" width="4" height="2.807"/>
	</g>
	<g>
		<rect x="124.517" y="449.192" fill="#808080" width="4" height="2.807"/>
	</g>
	<g>
		<rect x="115.883" y="449.192" fill="#808080" width="4" height="2.807"/>
	</g>
	<g>
		<rect x="107.25" y="449.192" fill="#808080" width="4" height="2.807"/>
	</g>
	<g>
		<rect x="98.616" y="449.192" fill="#808080" width="4" height="2.807"/>
	</g>
	<g>
		<rect x="89.981" y="449.192" fill="#808080" width="4" height="2.807"/>
	</g>
	<g>
		<rect x="81.347" y="450.192" fill="#808080" width="4" height="1.807"/>
	</g>
	<g>
		<rect x="72.714" y="450.192" fill="#808080" width="4" height="1.807"/>
	</g>
	<g>
		<rect x="64.08" y="450.192" fill="#808080" width="4" height="1.807"/>
	</g>
	<g>
		<rect x="55.446" y="450.192" fill="#808080" width="4" height="1.807"/>
	</g>
	<g>
		<rect x="46.812" y="450.192" fill="#808080" width="4" height="1.807"/>
	</g>
	<g>
		<rect x="159.053" y="449.192" fill="#808080" width="4" height="2.807"/>
	</g>
	<g>
		<polyline fill="#FFFFFF" points="340.366,76.999 344.366,76.999 344.366,451.999 340.366,451.999 		"/>
	</g>
</g>
<g id="years">
	<g>
		<rect x="251" y="32" fill="#444444" width="2" height="420"/>
	</g>
	<g>
		<rect x="354" y="32" fill="#444444" width="2" height="420"/>
	</g>
	<g>
		<rect x="147" y="32" fill="#444444" width="2" height="420"/>
	</g>
	<g>
		<rect x="44" y="32" fill="#444444" width="2" height="420"/>
	</g>
</g>
<g id="labels">
	<g>
		<path fill="#FFFFFF" d="M238.869,469.93v-1.338l2.805-2.613c0.227-0.205,0.428-0.434,0.605-0.685
			c0.176-0.251,0.265-0.54,0.265-0.865c0-0.34-0.104-0.622-0.313-0.844c-0.209-0.223-0.486-0.334-0.834-0.334
			c-0.219,0-0.424,0.057-0.615,0.17s-0.336,0.269-0.436,0.467c-0.07,0.142-0.113,0.285-0.127,0.43
			c-0.015,0.146-0.021,0.296-0.021,0.452h-1.402c-0.007-0.042-0.01-0.085-0.01-0.127s0-0.085,0-0.127
			c0-0.361,0.066-0.699,0.201-1.014s0.316-0.591,0.547-0.829c0.23-0.237,0.503-0.423,0.818-0.558
			c0.314-0.134,0.652-0.202,1.014-0.202s0.699,0.067,1.014,0.202s0.59,0.317,0.824,0.547c0.232,0.23,0.417,0.503,0.552,0.818
			c0.134,0.315,0.202,0.653,0.202,1.014c0,0.283-0.041,0.549-0.123,0.796c-0.081,0.248-0.192,0.48-0.334,0.696
			s-0.305,0.423-0.488,0.621c-0.185,0.198-0.375,0.386-0.574,0.563l-1.593,1.423h3.112v1.338L238.869,469.93L238.869,469.93z"/>
		<path fill="#FFFFFF" d="M251.242,467.455c0,0.39-0.064,0.746-0.191,1.067c-0.128,0.322-0.309,0.6-0.542,0.834
			c-0.233,0.233-0.512,0.414-0.834,0.542s-0.678,0.191-1.067,0.191c-0.418,0-0.782-0.069-1.094-0.207s-0.612-0.355-0.902-0.653
			c-0.255-0.262-0.427-0.545-0.516-0.85c-0.088-0.305-0.133-0.637-0.133-0.999v-2.825c0-0.396,0.066-0.758,0.197-1.083
			s0.316-0.604,0.557-0.833c0.241-0.23,0.524-0.409,0.85-0.536s0.688-0.191,1.084-0.191c0.375,0,0.723,0.067,1.041,0.202
			s0.592,0.321,0.822,0.558c0.23,0.237,0.409,0.517,0.537,0.839c0.127,0.322,0.191,0.671,0.191,1.046L251.242,467.455
			L251.242,467.455z M249.829,464.566c0-0.177-0.028-0.345-0.085-0.504s-0.139-0.299-0.244-0.419
			c-0.106-0.12-0.234-0.216-0.383-0.287s-0.314-0.106-0.499-0.106c-0.403,0-0.712,0.132-0.924,0.398s-0.318,0.589-0.318,0.972v2.676
			c0,0.198,0.024,0.386,0.074,0.563s0.124,0.331,0.224,0.462c0.099,0.131,0.227,0.235,0.382,0.313s0.34,0.117,0.552,0.117
			c0.213,0,0.395-0.037,0.547-0.112c0.152-0.074,0.278-0.175,0.377-0.302c0.1-0.127,0.174-0.278,0.224-0.452
			c0.05-0.173,0.074-0.359,0.074-0.558v-2.761H249.829z"/>
		<path fill="#FFFFFF" d="M254.863,469.93v-6.521h-0.988v-1.338h2.4v7.859H254.863z"/>
		<path fill="#FFFFFF" d="M264.388,468.751v1.179h-1.412v-1.179h-3.389v-1.158l3.611-5.522h1.189v5.342h0.828v1.338L264.388,468.751
			L264.388,468.751z M262.976,464.461h-0.021l-1.848,2.952h1.869V464.461z"/>
	</g>
	<g>
		<path fill="#FFFFFF" d="M341.24,469.929v-1.338l2.805-2.613c0.227-0.205,0.428-0.434,0.605-0.685
			c0.176-0.251,0.265-0.54,0.265-0.865c0-0.34-0.104-0.622-0.313-0.844c-0.209-0.223-0.486-0.334-0.834-0.334
			c-0.219,0-0.424,0.057-0.615,0.17c-0.191,0.113-0.336,0.269-0.436,0.467c-0.07,0.142-0.113,0.285-0.127,0.43
			c-0.015,0.146-0.021,0.296-0.021,0.452h-1.402c-0.007-0.042-0.01-0.085-0.01-0.127c0-0.042,0-0.085,0-0.127
			c0-0.361,0.066-0.699,0.201-1.014s0.316-0.591,0.547-0.829c0.23-0.237,0.503-0.423,0.818-0.558
			c0.314-0.134,0.652-0.202,1.014-0.202s0.699,0.067,1.014,0.202s0.59,0.317,0.824,0.547c0.232,0.23,0.417,0.503,0.552,0.818
			c0.134,0.315,0.202,0.653,0.202,1.014c0,0.283-0.041,0.549-0.123,0.796c-0.081,0.248-0.192,0.48-0.334,0.696
			c-0.142,0.216-0.305,0.423-0.488,0.621c-0.185,0.198-0.375,0.386-0.574,0.563l-1.593,1.423h3.112v1.338L341.24,469.929
			L341.24,469.929z"/>
		<path fill="#FFFFFF" d="M353.613,467.455c0,0.39-0.064,0.746-0.191,1.067c-0.128,0.322-0.309,0.6-0.542,0.834
			c-0.233,0.233-0.512,0.414-0.834,0.542s-0.678,0.191-1.067,0.191c-0.418,0-0.782-0.069-1.094-0.207s-0.612-0.355-0.902-0.653
			c-0.255-0.262-0.427-0.545-0.516-0.85c-0.088-0.305-0.133-0.637-0.133-0.999v-2.824c0-0.396,0.066-0.758,0.197-1.083
			s0.316-0.604,0.557-0.833c0.241-0.23,0.524-0.409,0.85-0.536c0.326-0.127,0.688-0.191,1.084-0.191
			c0.375,0,0.723,0.067,1.041,0.202s0.592,0.321,0.822,0.558c0.23,0.237,0.409,0.517,0.537,0.839
			c0.127,0.322,0.191,0.671,0.191,1.046V467.455z M352.199,464.565c0-0.177-0.028-0.345-0.085-0.504
			c-0.057-0.159-0.139-0.299-0.244-0.419c-0.106-0.12-0.234-0.216-0.383-0.287s-0.314-0.106-0.499-0.106
			c-0.403,0-0.712,0.132-0.924,0.398c-0.212,0.266-0.318,0.589-0.318,0.972v2.676c0,0.198,0.024,0.386,0.074,0.563
			s0.124,0.331,0.224,0.462c0.099,0.131,0.227,0.235,0.382,0.313s0.34,0.117,0.552,0.117c0.213,0,0.395-0.037,0.547-0.112
			c0.152-0.074,0.278-0.175,0.377-0.302c0.1-0.127,0.174-0.278,0.224-0.452c0.05-0.173,0.074-0.359,0.074-0.558v-2.761H352.199z"/>
		<path fill="#FFFFFF" d="M357.021,469.929v-6.521h-0.987v-1.338h2.399v7.859H357.021z"/>
		<path fill="#FFFFFF" d="M366.844,467.349c0,0.382-0.071,0.74-0.212,1.073c-0.143,0.333-0.337,0.623-0.584,0.871
			c-0.248,0.248-0.537,0.442-0.866,0.584s-0.685,0.212-1.067,0.212c-0.34,0-0.669-0.065-0.987-0.196
			c-0.319-0.131-0.601-0.308-0.845-0.531c-0.244-0.223-0.444-0.486-0.6-0.791c-0.156-0.304-0.24-0.63-0.255-0.977h1.412
			c0.057,0.326,0.191,0.6,0.403,0.823c0.213,0.223,0.492,0.334,0.84,0.334c0.197,0,0.379-0.037,0.541-0.112
			c0.163-0.074,0.305-0.175,0.425-0.302s0.214-0.276,0.282-0.446c0.066-0.17,0.1-0.351,0.1-0.542c0-0.184-0.033-0.359-0.1-0.526
			c-0.068-0.166-0.162-0.313-0.282-0.44s-0.262-0.229-0.425-0.303c-0.162-0.074-0.336-0.112-0.52-0.112
			c-0.234,0-0.435,0.048-0.601,0.144c-0.167,0.096-0.32,0.235-0.462,0.419l-1.264-0.351l0.743-4.11h3.558v1.338h-2.496l-0.254,1.444
			c0.162-0.071,0.326-0.126,0.493-0.165c0.167-0.039,0.339-0.059,0.515-0.059c0.369,0,0.705,0.076,1.01,0.229
			s0.568,0.354,0.791,0.605c0.223,0.251,0.396,0.542,0.52,0.871C366.783,466.664,366.844,467.002,366.844,467.349z"/>
	</g>
	<g>
		<path fill="#FFFFFF" d="M134.831,469.929v-1.338l2.804-2.613c0.227-0.205,0.429-0.434,0.605-0.685
			c0.177-0.251,0.265-0.54,0.265-0.865c0-0.34-0.104-0.622-0.312-0.844c-0.209-0.223-0.486-0.334-0.834-0.334
			c-0.219,0-0.425,0.057-0.615,0.17c-0.191,0.113-0.337,0.269-0.436,0.467c-0.071,0.142-0.113,0.285-0.128,0.43
			c-0.015,0.146-0.021,0.296-0.021,0.452h-1.402c-0.008-0.042-0.011-0.085-0.011-0.127s0-0.085,0-0.127
			c0-0.361,0.067-0.699,0.202-1.014c0.134-0.315,0.316-0.591,0.547-0.829c0.229-0.237,0.502-0.423,0.817-0.558
			c0.315-0.134,0.653-0.202,1.015-0.202s0.699,0.067,1.014,0.202c0.314,0.135,0.59,0.317,0.823,0.547
			c0.233,0.23,0.417,0.503,0.552,0.818s0.202,0.653,0.202,1.014c0,0.283-0.041,0.549-0.122,0.796
			c-0.082,0.248-0.193,0.48-0.334,0.696c-0.143,0.216-0.305,0.423-0.489,0.621c-0.185,0.198-0.375,0.386-0.573,0.563l-1.594,1.423
			h3.112v1.338L134.831,469.929L134.831,469.929z"/>
		<path fill="#FFFFFF" d="M147.203,467.455c0,0.39-0.063,0.746-0.191,1.067c-0.128,0.322-0.308,0.6-0.542,0.834
			c-0.233,0.233-0.512,0.414-0.834,0.542s-0.678,0.191-1.066,0.191c-0.418,0-0.783-0.069-1.094-0.207
			c-0.312-0.138-0.613-0.355-0.902-0.653c-0.256-0.262-0.428-0.545-0.516-0.85c-0.089-0.305-0.133-0.637-0.133-0.999v-2.824
			c0-0.396,0.065-0.758,0.196-1.083s0.317-0.604,0.558-0.833s0.523-0.409,0.85-0.536s0.687-0.191,1.084-0.191
			c0.375,0,0.722,0.067,1.04,0.202c0.319,0.135,0.593,0.321,0.823,0.558s0.408,0.517,0.536,0.839
			c0.128,0.322,0.191,0.671,0.191,1.046V467.455z M145.79,464.566c0-0.177-0.027-0.345-0.084-0.504s-0.139-0.299-0.244-0.419
			c-0.107-0.12-0.234-0.216-0.383-0.287s-0.315-0.106-0.5-0.106c-0.402,0-0.711,0.132-0.924,0.398
			c-0.212,0.266-0.318,0.589-0.318,0.972v2.676c0,0.198,0.025,0.386,0.074,0.563c0.05,0.177,0.124,0.331,0.224,0.462
			c0.099,0.131,0.227,0.235,0.382,0.313c0.156,0.078,0.34,0.117,0.553,0.117s0.395-0.037,0.547-0.112
			c0.152-0.074,0.277-0.175,0.377-0.302s0.174-0.278,0.223-0.452c0.05-0.173,0.074-0.359,0.074-0.558v-2.761H145.79z"/>
		<path fill="#FFFFFF" d="M151.036,469.929v-6.521h-0.986v-1.338h2.399v7.859H151.036z"/>
		<path fill="#FFFFFF" d="M161.253,467.455c0,0.375-0.07,0.724-0.213,1.046c-0.141,0.322-0.334,0.6-0.578,0.833
			c-0.244,0.234-0.531,0.418-0.86,0.552s-0.679,0.202-1.046,0.202c-0.361,0-0.699-0.063-1.015-0.191s-0.591-0.305-0.828-0.531
			s-0.427-0.494-0.568-0.802s-0.224-0.643-0.244-1.003h1.413c0.014,0.163,0.057,0.317,0.127,0.462s0.162,0.271,0.275,0.377
			c0.113,0.106,0.244,0.191,0.394,0.255c0.148,0.064,0.308,0.096,0.478,0.096s0.331-0.034,0.483-0.101
			c0.152-0.067,0.285-0.159,0.398-0.276c0.113-0.117,0.203-0.253,0.271-0.409c0.067-0.155,0.102-0.318,0.102-0.488
			c0-0.227-0.043-0.423-0.128-0.589s-0.2-0.303-0.345-0.409c-0.146-0.106-0.312-0.184-0.5-0.233s-0.384-0.074-0.589-0.074h-0.233
			v-1.338h0.244c0.135,0,0.26-0.016,0.377-0.048s0.221-0.083,0.312-0.154c0.093-0.071,0.165-0.158,0.219-0.26
			c0.053-0.103,0.079-0.229,0.079-0.377c0-0.227-0.058-0.407-0.175-0.542c-0.117-0.135-0.293-0.202-0.525-0.202
			c-0.206,0-0.371,0.072-0.494,0.217c-0.124,0.146-0.193,0.313-0.207,0.504h-1.412c0.035-0.453,0.162-0.849,0.382-1.189
			s0.548-0.588,0.987-0.744c0.113-0.035,0.232-0.065,0.355-0.09c0.125-0.024,0.246-0.037,0.367-0.037c0.29,0,0.564,0.057,0.822,0.17
			c0.259,0.113,0.485,0.266,0.68,0.457c0.195,0.191,0.35,0.416,0.463,0.674c0.113,0.259,0.17,0.533,0.17,0.823
			c0,0.297-0.054,0.561-0.16,0.791c-0.105,0.23-0.279,0.43-0.52,0.6c0.424,0.184,0.738,0.457,0.939,0.818
			C161.151,466.605,161.253,467.009,161.253,467.455z"/>
	</g>
	<g>
		<path fill="#FFFFFF" d="M32.878,469.93v-1.338l2.805-2.613c0.227-0.205,0.428-0.434,0.605-0.685
			c0.176-0.251,0.265-0.54,0.265-0.865c0-0.34-0.104-0.622-0.313-0.844c-0.209-0.223-0.486-0.334-0.834-0.334
			c-0.219,0-0.424,0.057-0.615,0.17c-0.191,0.113-0.336,0.269-0.436,0.467c-0.07,0.142-0.113,0.285-0.127,0.43
			c-0.015,0.146-0.021,0.296-0.021,0.452h-1.402c-0.007-0.042-0.01-0.085-0.01-0.127s0-0.085,0-0.127
			c0-0.361,0.066-0.699,0.201-1.014c0.135-0.315,0.316-0.591,0.547-0.829c0.23-0.237,0.503-0.423,0.818-0.558
			c0.314-0.134,0.652-0.202,1.014-0.202s0.699,0.067,1.014,0.202c0.315,0.135,0.59,0.317,0.824,0.547
			c0.232,0.23,0.417,0.503,0.552,0.818c0.134,0.315,0.202,0.653,0.202,1.014c0,0.283-0.041,0.549-0.123,0.796
			c-0.081,0.248-0.192,0.48-0.334,0.696c-0.142,0.216-0.305,0.423-0.488,0.621c-0.185,0.198-0.375,0.386-0.574,0.563l-1.593,1.423
			h3.112v1.338L32.878,469.93L32.878,469.93z"/>
		<path fill="#FFFFFF" d="M45.251,467.455c0,0.39-0.064,0.746-0.191,1.067c-0.128,0.322-0.309,0.6-0.542,0.834
			c-0.233,0.233-0.512,0.414-0.834,0.542c-0.322,0.128-0.678,0.191-1.067,0.191c-0.418,0-0.782-0.069-1.094-0.207
			s-0.612-0.355-0.902-0.653c-0.255-0.262-0.427-0.545-0.516-0.85c-0.088-0.305-0.133-0.637-0.133-0.999v-2.825
			c0-0.396,0.066-0.758,0.197-1.083s0.316-0.604,0.557-0.833c0.241-0.23,0.524-0.409,0.85-0.536s0.688-0.191,1.084-0.191
			c0.375,0,0.723,0.067,1.041,0.202s0.592,0.321,0.822,0.558s0.409,0.517,0.537,0.839c0.127,0.322,0.191,0.671,0.191,1.046V467.455z
			 M43.839,464.566c0-0.177-0.028-0.345-0.085-0.504s-0.139-0.299-0.244-0.419c-0.106-0.12-0.234-0.216-0.383-0.287
			c-0.149-0.071-0.314-0.106-0.499-0.106c-0.403,0-0.712,0.132-0.924,0.398c-0.212,0.266-0.318,0.589-0.318,0.972v2.676
			c0,0.198,0.024,0.386,0.074,0.563s0.124,0.331,0.224,0.462c0.099,0.131,0.227,0.235,0.382,0.313
			c0.155,0.078,0.34,0.117,0.552,0.117c0.213,0,0.395-0.037,0.547-0.112c0.152-0.074,0.278-0.175,0.377-0.302
			c0.1-0.127,0.174-0.278,0.224-0.452c0.05-0.173,0.074-0.359,0.074-0.558v-2.761H43.839z"/>
		<path fill="#FFFFFF" d="M49.084,469.93v-6.521h-0.987v-1.338h2.4v7.859H49.084z"/>
		<path fill="#FFFFFF" d="M54.118,469.93v-1.338l2.803-2.613c0.227-0.205,0.429-0.434,0.605-0.685
			c0.178-0.251,0.266-0.54,0.266-0.865c0-0.34-0.104-0.622-0.312-0.844c-0.209-0.223-0.487-0.334-0.834-0.334
			c-0.22,0-0.426,0.057-0.616,0.17c-0.191,0.113-0.337,0.269-0.436,0.467c-0.071,0.142-0.113,0.285-0.128,0.43
			c-0.014,0.146-0.021,0.296-0.021,0.452h-1.401c-0.008-0.042-0.012-0.085-0.012-0.127s0-0.085,0-0.127
			c0-0.361,0.068-0.699,0.202-1.014s0.317-0.591,0.547-0.829c0.229-0.237,0.503-0.423,0.817-0.558
			c0.315-0.134,0.654-0.202,1.015-0.202s0.699,0.067,1.015,0.202c0.314,0.135,0.589,0.317,0.822,0.547
			c0.234,0.23,0.418,0.503,0.553,0.818s0.201,0.653,0.201,1.014c0,0.283-0.041,0.549-0.121,0.796
			c-0.082,0.248-0.193,0.48-0.335,0.696s-0.305,0.423-0.489,0.621s-0.375,0.386-0.572,0.563l-1.594,1.423h3.111v1.338L54.118,469.93
			L54.118,469.93z"/>
	</g>
</g>
<g id="overlays">
</g>
</svg>
