<?xml version="1.0" encoding="utf-8"?>
<!-- Generator: Adobe Illustrator 17.0.2, SVG Export Plug-In . SVG Version: 6.00 Build 0)  -->
<!DOCTYPE svg PUBLIC "-//W3C//DTD SVG 1.1//EN" "http://www.w3.org/Graphics/SVG/1.1/DTD/svg11.dtd">
<svg version="1.1" id="Layer_1" xmlns="http://www.w3.org/2000/svg" xmlns:xlink="http://www.w3.org/1999/xlink" x="0px" y="0px"
	 width="393px" height="492px" viewBox="0 0 393 492" enable-background="new 0 0 393 492" xml:space="preserve">
<g>
	<rect x="337.776" y="26.827" fill="#FFFFFF" width="4" height="420.2"/>
</g>
<g>
	<rect x="329.142" y="72.089" fill="#FFFFFF" width="4" height="374.938"/>
</g>
<g>
	<rect x="320.507" y="122.2" fill="#FFFFFF" width="4" height="324.827"/>
</g>
<g>
	<rect x="311.873" y="160.188" fill="#FFFFFF" width="4" height="286.839"/>
</g>
<g>
	<rect x="303.24" y="196.559" fill="#FFFFFF" width="4" height="250.468"/>
</g>
<g>
	<rect x="294.606" y="231.314" fill="#FFFFFF" width="4" height="215.713"/>
</g>
<g>
	<rect x="285.972" y="263.644" fill="#FFFFFF" width="4" height="183.383"/>
</g>
<g>
	<rect x="277.338" y="301.183" fill="#FFFFFF" width="4" height="145.844"/>
</g>
<g>
	<rect x="268.704" y="335.578" fill="#FFFFFF" width="4" height="111.449"/>
</g>
<g>
	<rect x="260.07" y="365.483" fill="#FFFFFF" width="4" height="81.544"/>
</g>
<g>
	<rect x="251.436" y="382.456" fill="#FFFFFF" width="4" height="64.571"/>
</g>
<g>
	<rect x="242.802" y="393.727" fill="#FFFFFF" width="4" height="53.3"/>
</g>
<g>
	<rect x="234.168" y="403.471" fill="#808080" width="4" height="43.556"/>
</g>
<g>
	<rect x="225.534" y="412.317" fill="#808080" width="4" height="34.71"/>
</g>
<g>
	<rect x="216.901" y="420.377" fill="#808080" width="4" height="26.65"/>
</g>
<g>
	<rect x="208.267" y="425.249" fill="#808080" width="4" height="21.778"/>
</g>
<g>
	<rect x="199.632" y="429.672" fill="#808080" width="4" height="17.355"/>
</g>
<g>
	<rect x="190.998" y="434.522" fill="#808080" width="4" height="12.505"/>
</g>
<g>
	<rect x="182.365" y="436.947" fill="#808080" width="4" height="10.081"/>
</g>
<g>
	<rect x="173.731" y="439.371" fill="#808080" width="4" height="7.656"/>
</g>
<g>
	<rect x="165.097" y="441.796" fill="#808080" width="4" height="5.231"/>
</g>
<g>
	<rect x="156.463" y="443.199" fill="#808080" width="4" height="3.828"/>
</g>
<g>
	<rect x="139.195" y="444.22" fill="#808080" width="4" height="2.807"/>
</g>
<g>
	<rect x="130.561" y="444.22" fill="#808080" width="4" height="2.807"/>
</g>
<g>
	<rect x="121.927" y="444.22" fill="#808080" width="4" height="2.807"/>
</g>
<g>
	<rect x="113.293" y="444.22" fill="#808080" width="4" height="2.807"/>
</g>
<g>
	<rect x="104.659" y="444.22" fill="#808080" width="4" height="2.807"/>
</g>
<g>
	<rect x="96.026" y="444.22" fill="#808080" width="4" height="2.807"/>
</g>
<g>
	<rect x="87.392" y="444.22" fill="#808080" width="4" height="2.807"/>
</g>
<g>
	<rect x="78.757" y="444.22" fill="#808080" width="4" height="2.807"/>
</g>
<g>
	<rect x="70.123" y="445.22" fill="#808080" width="4" height="1.807"/>
</g>
<g>
	<rect x="61.49" y="445.22" fill="#808080" width="4" height="1.807"/>
</g>
<g>
	<rect x="52.856" y="445.22" fill="#808080" width="4" height="1.807"/>
</g>
<g>
	<rect x="44.222" y="445.22" fill="#808080" width="4" height="1.807"/>
</g>
<g>
	<rect x="35.588" y="445.22" fill="#808080" width="4" height="1.807"/>
</g>
<g>
	<rect x="147.829" y="444.22" fill="#808080" width="4" height="2.807"/>
</g>
<g>
	<rect x="337.776" y="26.027" fill="#FFFFFF" width="4" height="421"/>
</g>
<g>
	<rect x="329.142" y="72.027" fill="#FFFFFF" width="4" height="375"/>
</g>
<g>
	<rect x="320.507" y="122.027" fill="#FFFFFF" width="4" height="325"/>
</g>
<g>
	<rect x="311.873" y="160.027" fill="#FFFFFF" width="4" height="287"/>
</g>
<g>
	<rect x="303.24" y="196.027" fill="#FFFFFF" width="4" height="251"/>
</g>
<g>
	<rect x="294.606" y="231.027" fill="#FFFFFF" width="4" height="216"/>
</g>
<g>
	<rect x="285.972" y="263.027" fill="#FFFFFF" width="4" height="184"/>
</g>
<g>
	<rect x="277.338" y="301.027" fill="#FFFFFF" width="4" height="146"/>
</g>
<g>
	<rect x="268.704" y="335.027" fill="#FFFFFF" width="4" height="112"/>
</g>
<g>
	<rect x="260.07" y="365.027" fill="#FFFFFF" width="4" height="82"/>
</g>
<g>
	<rect x="251.436" y="382.027" fill="#FFFFFF" width="4" height="65"/>
</g>
<g>
	<rect x="242.802" y="394.027" fill="#FFFFFF" width="4" height="53"/>
</g>
<g>
	<rect x="234.168" y="403.027" fill="#808080" width="4" height="44"/>
</g>
<g>
	<rect x="225.534" y="412.027" fill="#808080" width="4" height="35"/>
</g>
<g>
	<rect x="216.901" y="420.027" fill="#808080" width="4" height="27"/>
</g>
<g>
	<rect x="208.267" y="425.027" fill="#808080" width="4" height="22"/>
</g>
<g>
	<rect x="199.632" y="430.027" fill="#808080" width="4" height="17"/>
</g>
<g>
	<rect x="190.998" y="434.027" fill="#808080" width="4" height="13"/>
</g>
<g>
	<rect x="182.365" y="437.027" fill="#808080" width="4" height="10"/>
</g>
<g>
	<rect x="173.731" y="439.027" fill="#808080" width="4" height="8"/>
</g>
<g>
	<rect x="165.097" y="442.027" fill="#808080" width="4" height="5"/>
</g>
<g>
	<rect x="156.463" y="443.027" fill="#808080" width="4" height="4"/>
</g>
<g>
	<rect x="139.195" y="444.027" fill="#808080" width="4" height="3"/>
</g>
<g>
	<rect x="130.561" y="444.027" fill="#808080" width="4" height="3"/>
</g>
<g>
	<rect x="121.927" y="444.027" fill="#808080" width="4" height="3"/>
</g>
<g>
	<rect x="113.293" y="444.027" fill="#808080" width="4" height="3"/>
</g>
<g>
	<rect x="104.659" y="445.027" fill="#808080" width="4" height="2"/>
</g>
<g>
	<rect x="96.026" y="445.027" fill="#808080" width="4" height="2"/>
</g>
<g>
	<rect x="87.392" y="444.027" fill="#808080" width="4" height="3"/>
</g>
<g>
	<rect x="78.757" y="444.027" fill="#808080" width="4" height="3"/>
</g>
<g>
	<rect x="70.123" y="446.027" fill="#808080" width="4" height="1"/>
</g>
<g>
	<rect x="61.49" y="446.027" fill="#808080" width="4" height="1"/>
</g>
<g>
	<rect x="52.856" y="446.027" fill="#808080" width="4" height="1"/>
</g>
<g>
	<rect x="44.222" y="446.027" fill="#808080" width="4" height="1"/>
</g>
<g>
	<rect x="35.588" y="446.027" fill="#808080" width="4" height="1"/>
</g>
<g>
	<rect x="147.829" y="444.027" fill="#808080" width="4" height="3"/>
</g>
</svg>
