<?xml version="1.0" encoding="utf-8"?>
<!-- Generator: Adobe Illustrator 17.0.2, SVG Export Plug-In . SVG Version: 6.00 Build 0)  -->
<!DOCTYPE svg PUBLIC "-//W3C//DTD SVG 1.1//EN" "http://www.w3.org/Graphics/SVG/1.1/DTD/svg11.dtd">
<svg version="1.1" id="Layer_1" xmlns="http://www.w3.org/2000/svg" xmlns:xlink="http://www.w3.org/1999/xlink" x="0px" y="0px"
	 width="30px" height="30px" viewBox="-10 -10 30 30" enable-background="new -10 -10 30 30" xml:space="preserve">
<g>
	<path fill="#FFFFFF" d="M2.805,12.5c-0.964,0-1.125-0.75-1.125-1.607S2.162,8.75,2.537,7.786l1.446-3.589
		c0.054-0.107,0.054-0.161,0-0.161c-0.268,0-1.071,0.589-1.554,1.232c-0.375,0.482-0.643,0.75-0.911,0.75S0.982,5.75,0.982,5.482
		c0-0.375,0.429-0.911,1.179-1.607l0.054-0.054c0.696-0.643,1.821-1.446,3.268-1.446c0.589,0,1.071,0.214,1.393,0.643
		c0.375,0.536,0.375,1.286,0,2.304l-1.5,4.125c-0.107,0.268-0.268,0.696-0.268,0.911c0.214,0,0.804-0.696,1.071-1.018
		C6.661,8.804,6.822,8.644,7.09,8.644s0.536,0.268,0.536,0.589C7.519,9.929,4.947,12.5,2.805,12.5z"/>
	<path fill="#FFFFFF" d="M6.983,1.089c-1.018,0-1.661-0.696-1.661-1.661c0-1.018,0.911-1.929,1.982-1.929
		c1.018,0,1.714,0.696,1.714,1.661C8.965,0.286,8.108,1.089,6.983,1.089z"/>
</g>
</svg>
