<?xml version="1.0" encoding="utf-8"?>
<!-- Generator: Adobe Illustrator 17.0.2, SVG Export Plug-In . SVG Version: 6.00 Build 0)  -->
<!DOCTYPE svg PUBLIC "-//W3C//DTD SVG 1.1//EN" "http://www.w3.org/Graphics/SVG/1.1/DTD/svg11.dtd">
<svg version="1.1" id="Layer_1" xmlns="http://www.w3.org/2000/svg" xmlns:xlink="http://www.w3.org/1999/xlink" x="0px" y="0px"
	 width="20px" height="20px" viewBox="0 0 20 20" enable-background="new 0 0 20 20" xml:space="preserve">
<g>
	<path d="M7.804,17.5c-0.964,0-1.125-0.75-1.125-1.607s0.482-2.143,0.857-3.107l1.446-3.589c0.054-0.107,0.054-0.161,0-0.161
		c-0.268,0-1.071,0.589-1.554,1.232c-0.375,0.482-0.643,0.75-0.911,0.75c-0.268,0-0.536-0.268-0.536-0.536
		c0-0.375,0.429-0.911,1.179-1.607l0.054-0.054c0.696-0.643,1.821-1.446,3.268-1.446c0.589,0,1.071,0.214,1.393,0.643
		c0.375,0.536,0.375,1.286,0,2.304l-1.5,4.125c-0.107,0.268-0.268,0.696-0.268,0.911c0.214,0,0.804-0.696,1.071-1.018
		c0.482-0.536,0.643-0.696,0.911-0.696s0.536,0.268,0.536,0.589C12.518,14.929,9.946,17.5,7.804,17.5z"/>
	<path d="M11.982,6.089c-1.018,0-1.661-0.696-1.661-1.661c0-1.018,0.911-1.929,1.982-1.929c1.018,0,1.714,0.696,1.714,1.661
		C13.964,5.286,13.107,6.089,11.982,6.089z"/>
</g>
</svg>
