<?xml version="1.0" encoding="utf-8"?>
<!-- Generator: Adobe Illustrator 18.0.0, SVG Export Plug-In . SVG Version: 6.00 Build 0)  -->
<!DOCTYPE svg PUBLIC "-//W3C//DTD SVG 1.1//EN" "http://www.w3.org/Graphics/SVG/1.1/DTD/svg11.dtd">
<svg version="1.1" id="Layer_1" xmlns="http://www.w3.org/2000/svg" xmlns:xlink="http://www.w3.org/1999/xlink" x="0px" y="0px"
	 viewBox="0 0 92 92" enable-background="new 0 0 92 92" xml:space="preserve">
<g>
	<path fill="#FFFFFF" d="M37.3,70.4c-3.2,0-3.7-2.5-3.7-5.3s1.6-7.1,2.8-10.3L41.2,43c0.2-0.4,0.2-0.5,0-0.5c-0.9,0-3.5,1.9-5.1,4.1
		c-1.2,1.6-2.1,2.5-3,2.5s-1.8-0.9-1.8-1.8c0-1.2,1.4-3,3.9-5.3l0.2-0.2c2.3-2.1,6-4.8,10.8-4.8c1.9,0,3.5,0.7,4.6,2.1
		c1.2,1.8,1.2,4.2,0,7.6l-5,13.6c-0.4,0.9-0.9,2.3-0.9,3c0.7,0,2.7-2.3,3.5-3.4c1.6-1.8,2.1-2.3,3-2.3s1.8,0.9,1.8,1.9
		C53.1,61.9,44.6,70.4,37.3,70.4z"/>
	<path fill="#FFFFFF" d="M51.3,32.7c-3.4,0-5.5-2.3-5.5-5.5c0-3.4,3-6.4,6.5-6.4c3.4,0,5.7,2.3,5.7,5.5
		C57.9,30.1,54.8,32.7,51.3,32.7z"/>
</g>
<g>
	<path fill="#FFFFFF" d="M46,3.5c23.4,0,42.5,19.1,42.5,42.5S69.4,88.5,46,88.5S3.5,69.4,3.5,46S22.6,3.5,46,3.5 M46,0
		C20.5,0,0,20.5,0,46s20.5,46,46,46s46-20.5,46-46S71.5,0,46,0L46,0z"/>
</g>
</svg>
