<?xml version="1.0" encoding="utf-8"?>
<!-- Generator: Adobe Illustrator 18.0.0, SVG Export Plug-In . SVG Version: 6.00 Build 0)  -->
<!DOCTYPE svg PUBLIC "-//W3C//DTD SVG 1.1//EN" "http://www.w3.org/Graphics/SVG/1.1/DTD/svg11.dtd">
<svg version="1.1" id="Layer_1" xmlns="http://www.w3.org/2000/svg" xmlns:xlink="http://www.w3.org/1999/xlink" x="0px" y="0px"
	 viewBox="0 0 92 92" enable-background="new 0 0 92 92" xml:space="preserve">
<g id="Layer_2">
</g>
<g id="Layer_1_1_">
	<path fill="#FFFFFF" d="M46,2.1c24.2,0,43.9,19.7,43.9,43.9S70.2,89.9,46,89.9S2.1,70.2,2.1,46S21.8,2.1,46,2.1 M46,0
		C20.6,0,0,20.6,0,46s20.6,46,46,46s46-20.6,46-46S71.4,0,46,0L46,0z"/>
</g>
<path id="White_1_" fill="#FFFFFF" d="M40.4,65.4V47.5h-6v-7h6v-5.1c0-6,3.6-9.2,9-9.2c2.5,0,4.7,0.2,5.4,0.3v6.2H51
	c-2.9,0-3.5,1.4-3.5,3.4v4.4h6.9l-0.9,7h-6v17.9H40.4z"/>
</svg>
