<?xml version="1.0" encoding="utf-8"?>
<!-- Generator: Adobe Illustrator 18.0.0, SVG Export Plug-In . SVG Version: 6.00 Build 0)  -->
<!DOCTYPE svg PUBLIC "-//W3C//DTD SVG 1.1//EN" "http://www.w3.org/Graphics/SVG/1.1/DTD/svg11.dtd">
<svg version="1.1" xmlns="http://www.w3.org/2000/svg" xmlns:xlink="http://www.w3.org/1999/xlink" x="0px" y="0px"
	 viewBox="0 0 86 86" enable-background="new 0 0 86 86" xml:space="preserve">
<g id="Layer_2">
</g>
<g id="Layer_1">
	<path fill="#FFFFFF" d="M43,2c22.6,0,41,18.4,41,41S65.6,84,43,84S2,65.6,2,43S20.4,2,43,2 M43,0C19.3,0,0,19.3,0,43s19.3,43,43,43
		s43-19.3,43-43S66.7,0,43,0L43,0z"/>
	<path fill="#FFFFFF" d="M64.3,30c-1.5,0.7-3,1.1-4.7,1.3c1.7-1,3-2.6,3.6-4.5c-1.6,0.9-3.3,1.6-5.2,2c-1.5-1.6-3.6-2.6-6-2.6
		c-4.5,0-8.2,3.7-8.2,8.2c0,0.6,0.1,1.3,0.2,1.9c-6.8-0.3-12.8-3.6-16.8-8.5c-0.7,1.2-1.1,2.6-1.1,4.1c0,2.8,1.4,5.3,3.6,6.8
		c-1.3,0-1.7-0.4-3.7-1c0,0,0,0.1,0,0.1c0,4,2.8,7.3,6.6,8c-0.7,0.2-1.4,0.3-2.1,0.3c-0.5,0-1,0-1.5-0.1c1,3.3,4.1,5.6,7.6,5.7
		c-2.8,2.2-6.3,3.5-10.1,3.5c-0.7,0-1.3,0-1.9-0.1c3.6,2.3,7.9,3.7,12.5,3.7c15,0,23.2-12.5,23.2-23.2c0-0.4,0-0.7,0-1.1
		C61.8,33.1,63.2,31.7,64.3,30z"/>
</g>
</svg>
