<?xml version="1.0" encoding="utf-8"?>
<!-- Generator: Adobe Illustrator 18.0.0, SVG Export Plug-In . SVG Version: 6.00 Build 0)  -->
<!DOCTYPE svg PUBLIC "-//W3C//DTD SVG 1.1//EN" "http://www.w3.org/Graphics/SVG/1.1/DTD/svg11.dtd">
<svg version="1.1" id="Layer_1" xmlns="http://www.w3.org/2000/svg" xmlns:xlink="http://www.w3.org/1999/xlink" x="0px" y="0px"
	 viewBox="0 0 92 92" enable-background="new 0 0 92 92" xml:space="preserve">
<g id="Layer_2_1_">
</g>
<g id="Layer_1_2_">
	<g id="Layer_2">
	</g>
	<g id="Layer_1_1_">
		<g>
			<path fill="#FFFFFF" d="M46,2c24.3,0,44,19.7,44,44S70.3,90,46,90S2,70.3,2,46S21.7,2,46,2 M46,0C20.6,0,0,20.6,0,46
				s20.6,46,46,46s46-20.6,46-46S71.4,0,46,0L46,0z"/>
		</g>
		<g>
			
				<rect x="45.1" y="23.3" transform="matrix(-0.7061 -0.7081 0.7081 -0.7061 46.4645 110.4249)" fill="#FFFFFF" width="2" height="44.5"/>
		</g>
		<g>
			
				<rect x="23.9" y="44.5" transform="matrix(-0.7082 -0.706 0.706 -0.7082 46.707 110.3029)" fill="#FFFFFF" width="44.5" height="2"/>
		</g>
	</g>
</g>
</svg>
