<?xml version="1.0" encoding="utf-8"?>
<!-- Generator: Adobe Illustrator 17.0.2, SVG Export Plug-In . SVG Version: 6.00 Build 0)  -->
<!DOCTYPE svg PUBLIC "-//W3C//DTD SVG 1.1//EN" "http://www.w3.org/Graphics/SVG/1.1/DTD/svg11.dtd">
<svg version="1.1" id="Layer_1" xmlns="http://www.w3.org/2000/svg" xmlns:xlink="http://www.w3.org/1999/xlink" x="0px" y="0px"
	 width="60px" height="60px" viewBox="0 0 60 60" enable-background="new 0 0 60 60" xml:space="preserve">
<path fill="#FFFFFF" d="M41.5,21.176c-0.92,0.412-1.909,0.69-2.946,0.815c1.059-0.641,1.873-1.654,2.256-2.863
	c-0.99,0.593-2.087,1.024-3.256,1.257c-0.937-1.006-2.27-1.634-3.745-1.634c-2.833,0-5.129,2.318-5.129,5.175
	c0,0.406,0.045,0.801,0.133,1.179c-4.263-0.215-8.042-2.276-10.572-5.408c-0.44,0.766-0.694,1.654-0.694,2.602
	c0,1.795,0.905,3.38,2.281,4.308c-0.84-0.026-1.631-0.26-2.322-0.648v0.065c0,2.508,1.768,4.6,4.114,5.075
	c-0.43,0.118-0.885,0.182-1.351,0.182c-0.33,0-0.653-0.033-0.966-0.094c0.653,2.056,2.546,3.552,4.791,3.595
	c-1.755,1.387-3.965,2.216-6.37,2.216c-0.413,0-0.821-0.025-1.222-0.073c2.27,1.468,4.966,2.325,7.864,2.325
	c9.433,0,14.592-7.885,14.592-14.725c0-0.223-0.005-0.447-0.014-0.67C39.942,23.126,40.811,22.215,41.5,21.176z"/>
</svg>
